<svg width="470" height="472" viewBox="0 0 470 472" fill="none" xmlns="http://www.w3.org/2000/svg">
<path d="M37.3961 121.202L235 6.83094L432.604 121.202V349.97L235 464.341L37.3961 349.97V121.202Z" stroke="#A8DADC" stroke-width="11.8242"/>
<path d="M176.627 189.645H189.918V260.642C189.918 270.237 187.025 277.743 181.241 283.161C175.502 288.578 167.835 291.286 158.241 291.286C148.278 291.286 140.52 288.739 134.965 283.643C129.41 278.547 126.633 271.408 126.633 262.226H139.854C139.854 267.965 141.415 272.441 144.537 275.655C147.705 278.868 152.273 280.475 158.241 280.475C163.704 280.475 168.111 278.753 171.462 275.31C174.86 271.867 176.581 267.047 176.627 260.849V189.645ZM234.059 258.301L235.987 271.523L238.81 259.61L258.643 189.645H269.798L289.149 259.61L291.903 271.729L294.038 258.232L309.601 189.645H322.892L298.583 289.909H286.532L265.873 216.846L264.289 209.202L262.706 216.846L241.289 289.909H229.238L204.998 189.645H218.22L234.059 258.301Z" fill="#A8DADC"/>
</svg>
