<?xml version="1.0" encoding="UTF-8" standalone="no"?>
<!DOCTYPE svg PUBLIC "-//W3C//DTD SVG 1.1//EN" "http://www.w3.org/Graphics/SVG/1.1/DTD/svg11.dtd">
<svg version="1.1" xmlns="http://www.w3.org/2000/svg" xmlns:xlink="http://www.w3.org/1999/xlink"
    preserveAspectRatio="xMidYMid meet" viewBox="0 0 1000 650" width="1000" height="650">
    <defs>
        <path d="M394.22 582.08L394.22 122.87L63.16 122.87L63.16 582.08L394.22 582.08Z" id="g6XEzxj0w1"></path>
        <path
            d="M20.44 528.69C20.44 560.72 52.48 582.08 73.84 582.08C98.76 582.08 223.35 582.08 447.62 582.08L447.62 16.07C223.35 16.07 98.76 16.07 73.84 16.07C41.8 16.07 20.44 37.43 20.44 69.47C20.44 161.31 20.44 482.76 20.44 528.69Z"
            id="g391k8jHZS"></path>
        <path
            d="M84.52 560.72C107.3 560.72 221.21 560.72 426.26 560.72L426.26 475.29C221.21 475.29 107.3 475.29 84.52 475.29C52.48 475.29 41.8 496.65 41.8 518.01C41.8 539.37 52.48 560.72 84.52 560.72Z"
            id="aRvvtsVqN"></path>
        <path d="M447.62 475.29L447.62 16.07L116.56 16.07L116.56 475.29L447.62 475.29Z" id="a3GNXJiHk"></path>
        <path
            d="M19.64 96.22C19.64 107.96 19.64 201.92 19.64 213.67C35.06 197.75 53.33 186.76 73.83 186.76C98.75 186.76 223.34 186.76 447.61 186.76L447.61 79.97L73.83 79.97C47.51 84.21 29.45 89.62 19.64 96.22Z"
            id="d89Frw7f4c"></path>
        <path class="topLine"
            d="M794.44 89.23C799.96 89.23 804.44 93.71 804.44 99.23C804.44 101.92 804.44 99.97 804.44 102.66C804.44 108.18 799.96 112.66 794.44 112.66C750.91 112.66 630.32 112.66 586.8 112.66C581.27 112.66 576.8 108.18 576.8 102.66C576.8 99.97 576.8 101.92 576.8 99.23C576.8 93.71 581.27 89.23 586.8 89.23C630.32 89.23 750.91 89.23 794.44 89.23Z"
            id="b2hRoE48P"></path>
        <path class="midLine"
            d="M935.86 279.97C940.37 279.97 944.02 283.63 944.02 288.13C944.02 290.32 944.02 288.73 944.02 290.92C944.02 295.43 940.37 299.08 935.86 299.08C892.57 299.08 770.85 299.08 727.56 299.08C723.06 299.08 719.4 295.43 719.4 290.92C719.4 288.73 719.4 290.32 719.4 288.13C719.4 283.63 723.06 279.97 727.56 279.97C770.85 279.97 892.57 279.97 935.86 279.97Z"
            id="p4CHLbXr5u"></path>
        <path class="botLine"
            d="M841.09 452.36C845.59 452.36 849.24 456.01 849.24 460.51C849.24 462.7 849.24 461.12 849.24 463.31C849.24 467.81 845.59 471.46 841.09 471.46C797.8 471.46 676.08 471.46 632.79 471.46C628.28 471.46 624.63 467.81 624.63 463.31C624.63 461.12 624.63 462.7 624.63 460.51C624.63 456.01 628.28 452.36 632.79 452.36C676.08 452.36 797.8 452.36 841.09 452.36Z"
            id="abH6453oo"></path>
    </defs>
    <g>
        <g>
            <g>
                <use xlink:href="#g6XEzxj0w1" opacity="1" fill="#505050" fill-opacity="1"></use>
                <g>
                    <use xlink:href="#g6XEzxj0w1" opacity="1" fill-opacity="0" stroke="#000000" stroke-width="1"
                        stroke-opacity="0"></use>
                </g>
            </g>
            <g>
                <use xlink:href="#g391k8jHZS" opacity="1" fill="#008a00" fill-opacity="1"></use>
                <g>
                    <use xlink:href="#g391k8jHZS" opacity="1" fill-opacity="0" stroke="#000000" stroke-width="1"
                        stroke-opacity="0"></use>
                </g>
            </g>
            <g>
                <use xlink:href="#aRvvtsVqN" opacity="1" fill="#dddddd" fill-opacity="1"></use>
                <g>
                    <use xlink:href="#aRvvtsVqN" opacity="1" fill-opacity="0" stroke="#000000" stroke-width="1"
                        stroke-opacity="0"></use>
                </g>
            </g>
            <g>
                <use xlink:href="#a3GNXJiHk" opacity="1" fill="#60a917" fill-opacity="1"></use>
                <g>
                    <use xlink:href="#a3GNXJiHk" opacity="1" fill-opacity="0" stroke="#000000" stroke-width="1"
                        stroke-opacity="0"></use>
                </g>
            </g>
            <g>
                <use xlink:href="#d89Frw7f4c" opacity="1" fill="#7a3b3f" fill-opacity="1"></use>
                <g>
                    <use xlink:href="#d89Frw7f4c" opacity="1" fill-opacity="0" stroke="#000000" stroke-width="1"
                        stroke-opacity="0"></use>
                </g>
            </g>
            <g>
                <use xlink:href="#b2hRoE48P" opacity="1" fill="#b3b3b3" fill-opacity="1"></use>
            </g>
            <g>
                <use xlink:href="#p4CHLbXr5u" opacity="1" fill="#b3b3b3" fill-opacity="1"></use>
            </g>
            <g>
                <use xlink:href="#abH6453oo" opacity="1" fill="#b3b3b3" fill-opacity="1"></use>
            </g>
        </g>
    </g>
</svg>