<svg id="visual" viewBox="0 0 900 600"  xmlns="http://www.w3.org/2000/svg"
    xmlns:xlink="http://www.w3.org/1999/xlink" version="1.1">

    <path class="frontBars"
        d="M0 532L75 532L75 545L150 545L150 536L225 536L225 519L300 519L300 547L375 547L375 529L450 529L450 568L525 568L525 565L600 565L600 550L675 550L675 515L750 515L750 549L825 549L825 531L900 531L900 552L900 601L900 601L825 601L825 601L750 601L750 601L675 601L675 601L600 601L600 601L525 601L525 601L450 601L450 601L375 601L375 601L300 601L300 601L225 601L225 601L150 601L150 601L75 601L75 601L0 601Z"
        fill="#4facf7"></path>
</svg>