<svg id="visual" viewBox="0 0 900 600"  xmlns="http://www.w3.org/2000/svg"
    xmlns:xlink="http://www.w3.org/1999/xlink" version="1.1">
    <path class="backBars"
        d="M0 459L129 459L129 416L257 416L257 409L386 409L386 441L514 441L514 414L643 414L643 445L771 445L771 443L900 443L900 425L900 601L900 601L771 601L771 601L643 601L643 601L514 601L514 601L386 601L386 601L257 601L257 601L129 601L129 601L0 601Z"
        fill="#560090"></path>
    <path class="midBars"
        d="M0 487L129 487L129 493L257 493L257 508L386 508L386 470L514 470L514 479L643 479L643 467L771 467L771 510L900 510L900 503L900 601L900 601L771 601L771 601L643 601L643 601L514 601L514 601L386 601L386 601L257 601L257 601L129 601L129 601L0 601Z"
        fill="#7700c6"></path>
    <path class="frontBars"
        d="M0 536L129 536L129 562L257 562L257 534L386 534L386 529L514 529L514 552L643 552L643 557L771 557L771 554L900 554L900 544L900 601L900 601L771 601L771 601L643 601L643 601L514 601L514 601L386 601L386 601L257 601L257 601L129 601L129 601L0 601Z"
        fill="#9900ff"></path>
</svg>