<svg id="visual" viewBox="0 0 900 600"  xmlns="http://www.w3.org/2000/svg"
    xmlns:xlink="http://www.w3.org/1999/xlink" version="1.1">
    <path class="midBars"
        d="M0 503L75 503L75 476L150 476L150 485L225 485L225 482L300 482L300 463L375 463L375 503L450 503L450 484L525 484L525 510L600 510L600 490L675 490L675 470L750 470L750 476L825 476L825 510L900 510L900 484L900 601L900 601L825 601L825 601L750 601L750 601L675 601L675 601L600 601L600 601L525 601L525 601L450 601L450 601L375 601L375 601L300 601L300 601L225 601L225 601L150 601L150 601L75 601L75 601L0 601Z"
        fill="#008cff"></path>

</svg>