<svg viewBox="0 0 500 500" fill="none" xmlns="http://www.w3.org/2000/svg">
    <path class="hex" pathLength="1" d="M127.434 179.025L249.5 108.551L371.566 179.025V319.975L249.5 390.449L127.434 319.975V179.025Z"
        stroke="#A8DADC" stroke-width="11.3462" />
    <path
        class="name" pathLength="1"
        d="M214.846 211.845H224.47V263.251C224.47 270.199 222.375 275.634 218.187 279.556C214.032 283.478 208.481 285.44 201.534 285.44C194.32 285.44 188.703 283.595 184.68 279.905C180.658 276.215 178.647 271.046 178.647 264.398H188.221C188.221 268.553 189.351 271.794 191.611 274.121C193.905 276.448 197.212 277.611 201.534 277.611C205.489 277.611 208.68 276.365 211.107 273.872C213.567 271.379 214.813 267.889 214.846 263.401V211.845ZM256.431 261.556L257.827 271.129L259.871 262.504L274.231 211.845H282.308L296.319 262.504L298.314 271.279L299.859 261.506L311.128 211.845H320.751L303.15 284.442H294.425L279.466 231.54L278.32 226.005L277.173 231.54L261.666 284.442H252.94L235.389 211.845H244.962L256.431 261.556Z"
        fill="#A8DADC" />
</svg>